<?xml version="1.0" encoding="UTF-8" standalone="no"?>
<!DOCTYPE svg PUBLIC "-//W3C//DTD SVG 1.1//EN" "http://www.w3.org/Graphics/SVG/1.1/DTD/svg11.dtd">
<!-- Created with Vectornator (http://vectornator.io/) -->
<svg height="100%" stroke-miterlimit="10" style="fill-rule:nonzero;clip-rule:evenodd;stroke-linecap:round;stroke-linejoin:round;" version="1.1" viewBox="0 0 841.995 595.35" width="100%" xml:space="preserve" xmlns="http://www.w3.org/2000/svg" xmlns:xlink="http://www.w3.org/1999/xlink">
<defs/>
<g id="Layer-1">
<path d="" fill="none" opacity="1" stroke="#000000" stroke-linecap="butt" stroke-linejoin="miter" stroke-width="13.2552"/>
<path d="M116.794 301.399C119.579 312.54 114.507 324.16 117.339 335.49" fill="none" opacity="1" stroke="#000000" stroke-linecap="round" stroke-linejoin="miter" stroke-width="2.18954"/>
<path d="M126.612 303.581C126.612 301.962 126.612 304.399 126.612 304.399C126.359 310.127 125.991 315.85 125.794 321.581C125.634 326.203 125.794 330.862 125.794 335.49" fill="none" opacity="1" stroke="#000000" stroke-linecap="round" stroke-linejoin="miter" stroke-width="2.18954"/>
<path d="M118.157 321.308C114.79 319.063 123.574 318.581 125.794 318.581" fill="none" opacity="1" stroke="#000000" stroke-linecap="round" stroke-linejoin="miter" stroke-width="2.18954"/>
<path d="M132.885 325.671C128.073 325.671 129.936 338.165 138.066 330.035" fill="none" opacity="1" stroke="#000000" stroke-linecap="round" stroke-linejoin="miter" stroke-width="2.18954"/>
<path d="M139.975 324.853C139.425 326.505 139.393 331.568 141.339 332.217C142.874 332.729 144.529 329.323 144.885 328.399C145.146 327.72 145.061 325.511 144.885 326.217C143.045 333.576 149.237 326.49 149.248 326.49C149.32 326.49 155.721 334.849 157.703 327.581C158.63 324.18 155.677 322.113 152.794 324.035C150.784 325.375 150.29 327.803 150.066 330.035C150.018 330.522 150.393 331.837 150.612 331.399C151.89 328.842 149.823 313.213 148.975 310.671C148.264 308.538 149.022 315.627 150.612 317.217" fill="none" opacity="1" stroke="#000000" stroke-linecap="round" stroke-linejoin="miter" stroke-width="2.18954"/>
<path d="M161.248 327.308C161.248 330.919 166.476 323.361 163.975 322.944C160.728 322.403 161.593 327.892 166.157 328.399C168.495 328.658 169.68 323.762 168.339 323.762C166.538 323.762 167.826 329.757 169.43 329.49C171.725 329.107 170.194 320.489 171.066 318.308" fill="none" opacity="1" stroke="#000000" stroke-linecap="round" stroke-linejoin="miter" stroke-width="2.18954"/>
<path d="M168.339 299.49C167.686 299.054 166.495 297.881 166.975 300.581C167.616 304.184 168.719 307.692 169.703 311.217C170.306 313.38 171.334 315.401 172.157 317.49C173.037 319.723 176.231 326.182 175.157 324.035C172.449 318.62 168.093 305.762 176.794 305.762" fill="none" opacity="1" stroke="#000000" stroke-linecap="round" stroke-linejoin="miter" stroke-width="2.18954"/>
</g>
</svg>
