<?xml version="1.0" standalone="no"?>
<!DOCTYPE svg PUBLIC "-//W3C//DTD SVG 20010904//EN"
 "http://www.w3.org/TR/2001/REC-SVG-20010904/DTD/svg10.dtd">
<svg version="1.0" xmlns="http://www.w3.org/2000/svg"
 width="237.000000pt" height="265.000000pt" viewBox="0 0 237.000000 265.000000"
 preserveAspectRatio="xMidYMid meet">

<g transform="translate(0.000000,265.000000) scale(0.100000,-0.100000)"
fill="#000000" stroke="none">
<path d="M1215 2366 c-65 -14 -147 -49 -166 -72 -6 -8 -17 -14 -23 -14 -17 0
-119 -80 -155 -122 l-31 -36 -58 14 c-124 29 -212 74 -212 108 0 18 -84 86
-105 86 -47 0 -62 -62 -22 -96 34 -31 102 -74 115 -74 14 0 82 -87 144 -186
41 -67 115 -223 106 -228 -2 -1 -29 -19 -61 -40 -100 -67 -165 -163 -190 -282
-11 -53 -13 -55 -77 -90 -204 -112 -268 -172 -255 -241 5 -30 13 -38 62 -60
56 -26 57 -26 256 -21 155 4 214 2 261 -9 56 -13 152 -12 191 3 14 6 21 -21
45 -166 16 -96 40 -208 56 -268 9 -29 23 -108 33 -175 15 -106 20 -122 36
-122 44 0 40 110 -16 470 -39 251 -44 314 -27 332 10 10 75 25 180 43 262 44
331 52 548 64 195 10 205 12 205 31 0 18 -8 20 -70 23 -140 6 -444 -23 -665
-63 -47 -8 -93 -15 -103 -15 -18 0 -17 1 1 28 26 38 44 116 36 160 -10 55 -44
124 -77 157 -10 10 -15 21 -10 25 14 13 111 37 258 65 77 14 192 37 255 50 63
13 167 34 230 46 163 31 290 86 290 125 0 28 -25 64 -60 88 -49 32 -192 80
-300 100 -77 14 -503 61 -805 87 -66 6 -124 14 -128 18 -18 17 98 108 223 174
96 52 238 54 236 5 -1 -19 4 -23 29 -23 26 0 30 4 33 31 6 64 -92 96 -213 70z
m-477 -272 c32 -9 58 -18 60 -19 4 -4 -37 -85 -42 -85 -3 0 -14 17 -27 38 -12
20 -31 47 -42 60 -24 26 -21 27 51 6z m294 -53 c788 -74 924 -96 1060 -168 59
-32 66 -48 28 -68 -61 -32 -128 -50 -295 -80 -240 -43 -597 -119 -720 -154
-77 -22 -147 -41 -156 -41 -12 0 -23 23 -40 88 -13 48 -24 91 -24 97 0 17 68
44 112 45 63 0 95 15 91 43 -3 21 -8 22 -79 22 -64 0 -81 4 -111 25 -70 47
-96 115 -67 173 19 36 23 39 54 34 18 -3 84 -10 147 -16z m-163 -232 c21 -17
22 -22 10 -30 -21 -13 -24 -12 -36 21 -13 35 -7 37 26 9z m-9 -204 c12 -43 24
-84 27 -90 2 -7 -15 -17 -39 -24 -34 -10 -169 -61 -235 -88 -14 -6 -4 39 21
89 9 17 16 35 16 40 0 33 164 179 181 161 4 -5 17 -44 29 -88z m155 -146 c-8
-23 -15 -62 -16 -88 l-1 -46 -23 75 c-13 41 -23 75 -22 76 1 1 18 7 37 12 19
6 36 11 37 11 1 1 -4 -18 -12 -40z m131 -6 c73 -79 75 -173 8 -265 -37 -52
-61 -61 -68 -25 -2 12 -12 59 -22 104 -19 90 -15 159 10 198 22 33 32 32 72
-12z m-218 -75 c27 -95 53 -196 59 -230 6 -30 11 -28 -122 -53 -123 -23 -135
-21 -187 28 -55 52 -77 93 -85 157 l-6 48 54 28 c61 31 226 93 250 94 12 0 22
-21 37 -72z m-353 -208 c10 -19 31 -48 46 -64 16 -16 26 -33 23 -38 -3 -4 -71
-8 -151 -8 -113 0 -153 4 -179 16 -19 9 -37 21 -40 26 -8 13 34 71 65 90 14 8
64 39 111 67 l85 51 11 -52 c6 -29 19 -69 29 -88z m415 -110 c-8 -5 -26 -9
-40 -9 -23 1 -23 2 5 9 43 11 52 11 35 0z m-77 -17 c-7 -2 -21 -2 -30 0 -10 3
-4 5 12 5 17 0 24 -2 18 -5z"/>
</g>
</svg>
